<?xml version="1.0" encoding="UTF-8"?>
<svg xmlns="http://www.w3.org/2000/svg" width="150" height="29" viewBox="0 0 150 29" fill="none">
  <path d="M55.9345 6.35779H53.1339C53.0306 6.35963 52.932 6.40104 52.8589 6.4733C52.7858 6.54555 52.7439 6.64302 52.742 6.74519V12.4323C51.5964 11.093 50.0306 10.408 48.013 10.408C46.6873 10.408 45.5125 10.7047 44.5487 11.2709C43.5719 11.8238 42.7851 12.6535 42.2901 13.6529C41.7473 14.6659 41.5063 15.7967 41.5063 17.1072C41.5063 18.4168 41.7782 19.579 42.2901 20.5318C42.832 21.5143 43.5549 22.2576 44.4887 22.7646C45.4225 23.3003 46.4764 23.5385 47.6811 23.5385C48.7959 23.5385 49.7906 23.33 50.6635 22.9435C51.5323 22.5741 52.2823 21.9766 52.8321 21.2159V22.7646C52.8321 22.9731 53.013 23.1511 53.223 23.1511H55.9345C56.1454 23.1511 56.3254 22.9731 56.3254 22.7646V6.74519C56.3233 6.64333 56.2815 6.54622 56.2086 6.47418C56.1357 6.40214 56.0375 6.35985 55.9345 6.35779ZM52.7411 17.3454C52.7411 17.7921 52.6511 18.2083 52.5002 18.6254C52.3243 19.0304 52.0802 19.403 51.7782 19.7274C51.4105 20.0924 50.969 20.3766 50.4825 20.5615C49.9706 20.7395 49.4587 20.8581 48.8859 20.8581C47.7111 20.8581 46.8082 20.5318 46.1454 19.8469C45.4825 19.1907 45.1516 18.238 45.1516 17.0479C45.1516 15.767 45.4825 14.7846 46.1454 14.1293C46.8082 13.4749 47.772 13.1468 49.0068 13.1468C50.1816 13.1468 51.1154 13.4749 51.7473 14.1598C52.0792 14.487 52.3202 14.8744 52.5002 15.3203C52.682 15.767 52.7721 16.2434 52.7721 16.7198V17.3454H52.7411ZM71.0536 12.0745C69.8188 10.9734 68.1021 10.4071 65.8435 10.4071C64.3669 10.4071 63.0712 10.7055 61.9874 11.27C60.9251 11.8147 60.046 12.6529 59.4569 13.6826C58.8841 14.6947 58.584 15.856 58.584 17.1665C58.584 19.1916 59.216 20.7691 60.4817 21.9008C61.7455 23.0324 63.4931 23.5978 65.7826 23.5978C67.7703 23.5978 69.3669 23.241 70.5108 22.5552C71.5655 21.9305 72.2584 20.9777 72.6502 19.7274C72.7103 19.5485 72.5593 19.3696 72.3793 19.3696H69.6079C69.4869 19.3696 69.3969 19.4298 69.3669 19.5485C68.885 20.5606 67.7403 21.0675 65.9636 21.0675C65.1798 21.0675 64.5178 20.9183 63.945 20.6505C63.3722 20.3826 62.8903 19.9943 62.5593 19.5485C62.2203 19.0686 62.0413 18.4961 62.0474 17.9108H72.3793C72.4467 17.9114 72.5135 17.8987 72.5759 17.8735C72.6383 17.8483 72.695 17.811 72.7426 17.7639C72.7903 17.7168 72.828 17.6607 72.8535 17.5991C72.879 17.5374 72.8918 17.4713 72.8912 17.4047V16.8384C72.8912 14.7549 72.2584 13.1765 71.0536 12.0745ZM62.0774 15.678C62.1683 14.8735 62.5593 14.2183 63.2522 13.7122C63.945 13.1765 64.7888 12.9383 65.7826 12.9383C66.9574 12.9383 67.8612 13.1765 68.5231 13.6529C69.1869 14.1293 69.5179 14.8142 69.5479 15.678H62.0774ZM100.844 10.5563C99.0369 10.5563 97.5303 11.3015 96.2955 12.79V11.1523C96.2934 11.0503 96.2514 10.953 96.1783 10.881C96.1053 10.8089 96.0068 10.7676 95.9036 10.7658H93.1931C93.0899 10.7676 92.9914 10.8089 92.9184 10.881C92.8453 10.953 92.8033 11.0503 92.8012 11.1523V22.7943C92.8012 23.0028 92.9822 23.1808 93.1931 23.1808H95.9945C96.0977 23.1789 96.1962 23.1376 96.2693 23.0656C96.3423 22.9935 96.3843 22.8963 96.3864 22.7943V16.6605C96.3864 15.8272 96.7474 15.1126 97.4703 14.487C98.2531 13.8318 99.2479 13.4749 100.453 13.4749C100.603 13.4749 100.754 13.4749 100.935 13.5046C101.205 13.5342 101.416 13.3257 101.416 13.0579V11.0031C101.413 10.8855 101.365 10.7736 101.281 10.6905C101.197 10.6073 101.083 10.5593 100.965 10.5563H100.844ZM114.911 12.0448C113.676 10.9428 111.959 10.3775 109.7 10.3775C108.224 10.3775 106.929 10.675 105.845 11.2404C104.783 11.7851 103.904 12.6233 103.315 13.6529C102.742 14.665 102.441 15.8263 102.441 17.1369C102.441 19.1611 103.074 20.7395 104.339 21.8711C105.604 23.0028 107.351 23.5682 109.64 23.5682C111.628 23.5682 113.224 23.2104 114.369 22.5255C115.423 21.9008 116.115 20.948 116.507 19.6977C116.567 19.5179 116.417 19.34 116.236 19.34H113.465C113.345 19.34 113.254 19.3993 113.224 19.5188C112.742 20.5309 111.597 21.0379 109.821 21.0379C109.038 21.0379 108.375 20.8887 107.803 20.6208C107.23 20.3521 106.748 19.9647 106.417 19.5188C106.078 19.0391 105.899 18.4664 105.905 17.8811H116.326C116.394 17.8817 116.461 17.869 116.523 17.8438C116.585 17.8186 116.642 17.7813 116.69 17.7342C116.737 17.6871 116.775 17.6311 116.801 17.5694C116.826 17.5078 116.839 17.4417 116.838 17.3751V16.8088C116.748 14.7243 116.146 13.1468 114.911 12.0448ZM105.935 15.6475C106.025 14.8439 106.417 14.1886 107.11 13.6826C107.803 13.1468 108.646 12.9086 109.64 12.9086C110.815 12.9086 111.718 13.1468 112.381 13.6232C113.043 14.0996 113.375 14.7846 113.405 15.6475H105.935ZM131.267 12.0448C130.032 10.9428 128.315 10.3775 126.056 10.3775C124.581 10.3775 123.285 10.675 122.201 11.2404C121.139 11.785 120.26 12.6232 119.671 13.6529C119.099 14.665 118.797 15.8263 118.797 17.1369C118.797 19.1611 119.43 20.7395 120.695 21.8711C121.96 23.0028 123.707 23.5682 125.995 23.5682C127.984 23.5682 129.581 23.2104 130.725 22.5255C131.779 21.9008 132.472 20.948 132.863 19.6977C132.924 19.5179 132.773 19.34 132.592 19.34H129.822C129.701 19.34 129.611 19.3993 129.581 19.5188C129.099 20.5309 127.954 21.0379 126.176 21.0379C125.394 21.0379 124.731 20.8887 124.159 20.6208C123.586 20.3521 123.104 19.9647 122.773 19.5188C122.434 19.0389 122.255 18.4664 122.261 17.8811H132.683C132.75 17.8817 132.817 17.869 132.88 17.8438C132.942 17.8186 132.999 17.7813 133.046 17.7342C133.094 17.6871 133.132 17.6311 133.157 17.5694C133.183 17.5078 133.196 17.4417 133.195 17.3751V16.8088C133.104 14.7243 132.472 13.1468 131.267 12.0448ZM122.291 15.6475C122.381 14.8439 122.773 14.1886 123.466 13.6826C124.159 13.1468 125.002 12.9086 125.995 12.9086C127.17 12.9086 128.074 13.1468 128.737 13.6232C129.4 14.0996 129.731 14.7846 129.761 15.6475H122.291ZM149.609 6.32812H146.807C146.704 6.32996 146.606 6.37125 146.533 6.44331C146.46 6.51538 146.418 6.61262 146.416 6.71463V12.4026C145.271 11.0633 143.705 10.3775 141.687 10.3775C140.362 10.3775 139.187 10.6759 138.223 11.2413C137.246 11.7943 136.459 12.624 135.964 13.6232C135.422 14.6353 135.181 15.767 135.181 17.0775C135.181 18.3872 135.452 19.5494 135.964 20.5022C136.507 21.4846 137.229 22.228 138.163 22.7349C139.097 23.2706 140.151 23.5088 141.356 23.5088C142.47 23.5088 143.464 23.3003 144.338 22.9129C145.206 22.5437 145.956 21.9469 146.507 21.1871V22.7646C146.507 22.9731 146.687 23.1511 146.898 23.1511H149.609C149.819 23.1511 150 22.9731 150 22.7646V6.71553C150.001 6.66437 149.992 6.61344 149.973 6.56588C149.954 6.51831 149.925 6.4751 149.889 6.43891C149.852 6.40272 149.808 6.3743 149.76 6.35541C149.712 6.33651 149.661 6.32663 149.609 6.32812ZM146.446 17.3157C146.446 17.7625 146.356 18.1786 146.205 18.5957C146.029 19.0011 145.785 19.3738 145.482 19.6977C145.114 20.0624 144.673 20.3463 144.187 20.5309C143.675 20.7107 143.163 20.8294 142.59 20.8294C141.416 20.8294 140.512 20.5013 139.85 19.8163C139.187 19.162 138.856 18.2092 138.856 17.0173C138.856 15.7373 139.187 14.7549 139.85 14.0996C140.512 13.4444 141.477 13.1172 142.711 13.1172C143.886 13.1172 144.82 13.4444 145.452 14.1293C145.784 14.4574 146.025 14.8439 146.205 15.2906C146.384 15.7358 146.476 16.2108 146.476 16.6901V17.3157H146.446ZM89.3679 10.7649H86.6574C86.5542 10.7667 86.4557 10.808 86.3826 10.8801C86.3096 10.9521 86.2676 11.0494 86.2655 11.1514V12.4323C85.6926 11.7473 85.0307 11.2116 84.2778 10.8844C83.4941 10.5563 82.5602 10.3784 81.4764 10.3784C80.1807 10.3784 79.0369 10.6462 78.0431 11.2116C77.0483 11.7473 76.2955 12.5221 75.7535 13.4453C75.2116 14.398 74.9407 15.4695 74.9407 16.6605C74.9407 17.8218 75.1816 18.8339 75.6326 19.7274C75.6635 19.7876 75.6935 19.8469 75.7535 19.9359C76.2955 20.859 77.0183 21.5736 77.9521 22.0797C78.404 22.3179 78.8559 22.4967 79.3378 22.6154C79.8798 22.7646 80.4826 22.8239 81.1145 22.8239C81.8074 22.8239 82.4402 22.7646 83.0422 22.6154C83.404 22.5264 83.735 22.4077 84.0669 22.2882C84.9019 21.9469 85.6372 21.4043 86.2055 20.7098V22.6459C86.1828 23.2267 86.0063 23.7915 85.6935 24.2837C85.3617 24.76 84.8798 25.1466 84.3078 25.4144C83.9295 25.5998 83.5222 25.7208 83.1031 25.7722C82.8321 25.8018 82.5302 25.8315 82.2302 25.8315C80.4217 25.8315 79.2478 25.3254 78.7359 24.2828C78.7202 24.2398 78.6916 24.2025 78.6539 24.176C78.6162 24.1495 78.5712 24.135 78.525 24.1344H75.6326C75.4226 24.1344 75.3016 24.3133 75.3326 24.521C75.7235 25.8018 76.4464 26.7546 77.5002 27.4099C78.675 28.1245 80.2716 28.4813 82.3193 28.4813C83.8259 28.4813 85.1507 28.2431 86.2055 27.7371C86.2593 27.7138 86.3098 27.6836 86.3555 27.6472C86.893 27.404 87.3907 27.0829 87.8321 26.6944C88.946 25.6823 89.5779 24.343 89.6988 22.6154C89.7597 22.1695 89.7597 21.6932 89.7597 21.2168V11.181C89.7597 10.9428 89.5779 10.764 89.3688 10.764L89.3679 10.7649ZM78.645 15.9162C78.7659 15.1423 79.0969 14.5167 79.6088 14.0403C80.2716 13.4147 81.2355 13.1172 82.4402 13.1172C83.645 13.1172 84.5488 13.4147 85.1507 14.0106C85.7236 14.5769 86.0545 15.2313 86.1455 15.9459C86.1755 16.0951 86.1755 16.2434 86.1755 16.3926V16.8097C86.1755 17.6132 85.9345 18.2982 85.4526 18.8339C85.3617 18.9238 85.2707 19.0424 85.1507 19.1323C84.8198 19.4595 84.3979 19.6986 83.8869 19.8766C83.3741 20.057 82.8335 20.1477 82.2893 20.1444C81.1145 20.1444 80.2116 19.8469 79.5488 19.1916C79.4333 19.0973 79.3319 18.9871 79.2478 18.8645C78.7959 18.2685 78.555 17.5243 78.555 16.6011C78.615 16.3629 78.6141 16.1544 78.645 15.9162Z" fill="white"></path>
  <path d="M34.4882 11.1809L23.7044 5.31672L23.3434 5.10819C23.0364 4.98887 22.7094 4.92817 22.3796 4.92931C22.0486 4.92931 21.7167 4.98864 21.4158 5.10819L20.9948 5.34638L19.3072 6.26951C19.2772 6.29917 19.2772 6.32883 19.3072 6.35939L20 6.71624L24.0662 8.91933L26.4758 10.2299C26.4758 10.2299 22.9224 10.3782 19.6381 12.2541C19.0368 12.607 18.3499 12.7921 17.6505 12.7898H17.5005C16.8011 12.7921 16.1142 12.607 15.5128 12.2541C12.2295 10.3782 8.67523 10.2299 8.67523 10.2299L17.5605 5.37604L20.7229 3.61968C21.0548 3.43991 22.1995 2.72622 23.4943 3.11273C24.0671 3.26194 25.031 3.79765 25.8129 4.24528C26.1171 4.42279 26.4754 4.48726 26.8234 4.42713C27.1713 4.367 27.4862 4.1862 27.7115 3.9172C27.9442 3.64146 28.0719 3.29387 28.0724 2.93475C28.0724 2.4287 27.8315 1.95231 27.3496 1.65389C26.3257 1.02918 24.91 0.28403 23.7653 0.106057C20.8138 -0.399998 18.9462 1.02918 17.5305 1.77343C16.4457 0.910532 14.2481 -0.370336 11.3257 0.106057C10.151 0.313693 8.76525 1.02828 7.74142 1.65299C6.95855 2.12938 6.77761 3.20171 7.37954 3.88664C7.68141 4.21382 8.1024 4.3927 8.5252 4.3927C8.79525 4.3927 9.0362 4.33337 9.27716 4.18416C10.0609 3.73743 11.0248 3.20171 11.5967 3.0525C13.1333 2.63544 14.4581 3.61878 14.4581 3.61878L0.572832 11.1809C0.210948 11.3588 0 11.7471 0 12.1336V14.0095C0 14.3961 0.210948 14.7538 0.572832 14.9623C0.933808 15.1403 1.02473 15.2599 1.02473 15.9448C1.02473 17.1358 0.210948 23.657 8.82617 23.657C16.5667 23.657 15.6029 16.183 17.5305 16.2126C19.4881 16.183 18.5243 23.657 26.2348 23.657C34.85 23.657 34.0362 17.1358 34.0362 15.9448C34.0362 15.2599 34.0963 15.1709 34.4581 14.9623C34.82 14.7835 35.031 14.3961 35.031 14.0095V12.1336C35.0425 11.9401 34.9975 11.7473 34.9012 11.5784C34.805 11.4094 34.6616 11.2714 34.4882 11.1809ZM12.8314 19.1016C11.9886 20.8588 10.5128 21.1267 8.37426 21.0377C6.77761 20.9775 5.30097 20.4714 4.54902 19.6085C3.46427 18.387 3.5852 14.725 4.00619 13.9206C4.81998 12.3727 12.2895 12.8491 13.2833 14.814C13.4043 15.0226 14.0662 16.5713 12.8314 19.1016ZM30.512 19.6085C29.7591 20.4418 28.2843 20.9478 26.6867 21.0377C24.5791 21.1267 23.1024 20.8579 22.2295 19.1016C20.9948 16.5713 21.6567 15.0226 21.7476 14.814C22.7414 12.8491 30.241 12.3727 31.0248 13.9206C31.4758 14.7547 31.5967 18.4166 30.512 19.6085Z" fill="white"></path>
</svg>
