<?xml version="1.0" encoding="utf-8"?>
<!-- Generator: Adobe Illustrator 27.7.0, SVG Export Plug-In . SVG Version: 6.00 Build 0)  -->
<svg version="1.1" id="Layer_1" xmlns="http://www.w3.org/2000/svg" xmlns:xlink="http://www.w3.org/1999/xlink" x="0px" y="0px"
	 width="180px" height="63.9px" viewBox="0 0 180 63.9" style="enable-background:new 0 0 180 63.9;" xml:space="preserve">
<style type="text/css">
	.st0{fill:#4B4B4B;}
</style>
<g>
	<g>
		<path class="st0" d="M68.3,40.8c-4.9,0-9.7-3.5-9.7-11.5s4.8-11.4,9.7-11.4c2.4,0,4.3,0.6,5.6,1.5l-1.5,3.3
			c-0.9-0.6-2.3-1.1-3.6-1.1c-2.9,0-5.6,2.3-5.6,7.8s2.8,7.8,5.6,7.8c1.4,0,2.7-0.4,3.6-1.1l1.5,3.3C72.6,40.2,70.8,40.8,68.3,40.8z
			"/>
		<path class="st0" d="M91.3,40.4V25.7c0-2.8-1.8-4.2-4.8-4.2c-1.4,0-2.9,0.4-3.9,1v17.8h-4.4V8.2h4.4v10.9c1.4-0.6,3.2-1.2,4.9-1.2
			c5.1,0,8.3,2.6,8.3,7.4v15C95.8,40.4,91.3,40.4,91.3,40.4z"/>
		<path class="st0" d="M111.6,21.7c-0.7-0.2-1.4-0.3-2.3-0.3c-1.3,0-2.6,0.2-3.5,0.6v18.3h-4.4v-21c2.1-0.9,5.3-1.6,8.6-1.6
			c1,0,1.8,0.1,2.5,0.2L111.6,21.7z"/>
		<path class="st0" d="M123.4,40.8c-6.3,0-9.7-4.9-9.7-11.5s3.4-11.4,9.7-11.4s9.7,4.9,9.7,11.4S129.6,40.8,123.4,40.8z M123.4,21.4
			c-3.5,0-5.2,3.1-5.2,7.9s1.8,7.9,5.2,7.9s5.2-3.1,5.2-7.9S126.9,21.4,123.4,21.4z"/>
		<path class="st0" d="M150.9,40.4V25.6c0-2.6-1.6-4.2-4.6-4.2c-1.6,0-3.1,0.3-4.1,0.6v18.3h-4.4V19.4c2.2-0.9,5-1.6,8.4-1.6
			c6.2,0,9.2,2.7,9.2,7.4v15.1C155.4,40.4,150.9,40.4,150.9,40.4z"/>
		<path class="st0" d="M169.8,40.8c-6.3,0-9.7-4.9-9.7-11.5s3.4-11.4,9.7-11.4s9.7,4.9,9.7,11.4S176.1,40.8,169.8,40.8z M169.8,21.4
			c-3.5,0-5.2,3.1-5.2,7.9s1.8,7.9,5.2,7.9s5.2-3.1,5.2-7.9S173.2,21.4,169.8,21.4z"/>
	</g>
	<g>
		<path class="st0" d="M13.2,29.7c0,4.9,2.2,7.8,6.2,7.8c1.2,0,2.6-0.3,3.2-0.6V22.1c-0.6-0.3-2-0.5-3.2-0.5
			C15.3,21.7,13.2,25,13.2,29.7z"/>
		<path class="st0" d="M42.5,0H8.1C3.6,0,0,3.6,0,8.1v34.4c0,4.4,3.6,8.1,8.1,8.1h34.4c4.4,0,8.1-3.6,8.1-8.1V8.1
			C50.6,3.6,46.9,0,42.5,0z M27.1,39.5c-1.5,0.8-4.5,1.6-7.6,1.6c-6.9,0-10.8-4.3-10.8-11.4c0-6.8,3.6-11.5,10.3-11.5
			c1.4,0,2.8,0.3,3.6,0.6V8.3H27C27.1,8.3,27.1,39.5,27.1,39.5z M42.9,21.9c-0.7-0.2-1.4-0.3-2.3-0.3c-1.3,0-2.6,0.2-3.5,0.6v18.4
			h-4.5V19.5c2.1-0.9,5.3-1.6,8.6-1.6c1,0,1.9,0.1,2.5,0.2L42.9,21.9z"/>
	</g>
	<g>
		<path class="st0" d="M90,53.5c0.5-0.3,1-0.4,1.6-0.4c0.7,0,1.3,0.1,1.8,0.4c0.5,0.3,0.9,0.8,1.3,1.3c0.3,0.6,0.4,1.2,0.4,1.9
			c0,0.8-0.1,1.4-0.4,1.9c-0.3,0.6-0.7,1-1.3,1.3c-0.6,0.3-1.1,0.5-1.8,0.5c-0.6,0-1.2-0.1-1.6-0.4c-0.4-0.3-0.8-0.6-1.1-1.1v1.3
			h-1.2v-9.6H89v3.9C89.2,54.1,89.6,53.8,90,53.5z M93.6,55.4c-0.3-0.4-0.5-0.8-0.9-0.9s-0.8-0.3-1.3-0.3c-0.4,0-0.9,0.1-1.3,0.3
			s-0.7,0.5-0.9,0.9c-0.2,0.4-0.3,0.9-0.3,1.4s0.1,1,0.3,1.4c0.2,0.4,0.5,0.8,0.9,0.9c0.4,0.2,0.8,0.3,1.3,0.3
			c0.4,0,0.9-0.1,1.3-0.3s0.7-0.5,0.9-0.9c0.3-0.4,0.3-0.9,0.3-1.4C93.9,56.3,93.8,55.8,93.6,55.4z"/>
		<path class="st0" d="M103,53.2l-4.4,10.7h-1.3l1.4-3.5l-2.9-7.2h1.3l2.3,5.9l2.3-5.9H103z"/>
	</g>
	<g>
		<g>
			<g>
				<path class="st0" d="M161.2,57.1v3.4h-1.8v-0.4c-1.8,1.1-4.1,0.6-5.4-1.4l1.3-1.4c0.3,0.6,0.8,1.1,1.1,1.3
					c1.3,0.8,2.9-0.2,2.9-1.7c0.1-1.1-0.8-2-1.9-2c-0.6-0.1-1.1,0.3-1.4,0.7l-1.9,2.1c0,0-1.8,2.1-2.4,2.4c-3.3,1.9-7.1-1.9-5.2-5.2
					c1.6-2.5,5.1-2.5,6.7,0.1l-2.8,3.1L149,57l1.6-1.9c-1.3-0.8-2.9,0.3-2.8,1.8c-0.1,1.1,0.8,2,1.9,2c0.6,0.1,1.1-0.3,1.4-0.7
					l2.1-2.3c0.3-0.3,1.8-2.1,2.3-2.3C158.2,52,161.4,54.3,161.2,57.1z"/>
				<g>
					<path class="st0" d="M129.5,57.5h-5c0.1,0.4,0.4,0.8,0.7,1.1c0.3,0.3,0.8,0.4,1.3,0.4c0.7,0,1.4-0.3,2-0.8l0.8,1.3
						c-0.9,0.7-1.8,1.1-2.9,1.1c-0.8,0-1.4-0.2-2-0.5s-1.1-0.8-1.4-1.4c-0.3-0.6-0.5-1.2-0.5-1.9s0.2-1.3,0.5-1.9
						c0.3-0.6,0.8-1,1.4-1.4c0.6-0.3,1.2-0.5,1.9-0.5c0.7,0,1.3,0.1,1.8,0.4c0.5,0.3,0.9,0.7,1.2,1.2s0.4,1.1,0.4,1.7
						C129.6,56.7,129.6,57.1,129.5,57.5z M125.1,55.1c-0.3,0.3-0.5,0.6-0.6,1.1h3.3c0-0.4-0.2-0.8-0.4-1.1c-0.3-0.3-0.7-0.4-1.1-0.4
						C125.8,54.7,125.4,54.8,125.1,55.1z"/>
					<path class="st0" d="M114.2,52.6h-4.4v1.9h3.3v1.7h-3.3v2.4h4.6v1.8h-6.6v-9.5h6.4V52.6L114.2,52.6z"/>
					<path class="st0" d="M122.3,53.2l-3.5,7.3h-0.6l-3.5-7.3h2.1l1.8,4.1l1.8-4.1H122.3z"/>
					<path class="st0" d="M135.3,53.2v1.7h-0.5c-0.6,0-1.1,0.1-1.4,0.5c-0.4,0.3-0.5,0.8-0.5,1.4v3.6H131v-7.1h1.8v0.9
						c0.3-0.3,0.6-0.5,0.9-0.7c0.3-0.2,0.7-0.3,1.1-0.3C134.9,53.2,135.1,53.2,135.3,53.2z"/>
					<path class="st0" d="M144.5,60.4h-1.9v-4.1h-4.2v4.1h-1.9v-9.5h1.9v3.6h4.2v-3.6h1.9V60.4z"/>
					<path class="st0" d="M164.2,60.4h-1.9v-9.5h1.9V60.4z"/>
					<path class="st0" d="M170.6,58.7v1.6c-0.4,0.1-0.9,0.2-1.3,0.2c-0.9,0-1.6-0.3-2.1-0.7s-0.8-1.1-0.8-2v-3h-1.1v-1.6h1.1v-1.8
						h1.9v1.8h2v1.6h-2v2.8c0,0.4,0.1,0.7,0.3,0.9s0.6,0.3,1,0.3C169.7,58.8,170.1,58.8,170.6,58.7z"/>
					<path class="st0" d="M177.6,53.9c0.5,0.5,0.7,1.2,0.7,2.1v4.4h-1.9v-4.1c0-0.4-0.1-0.8-0.4-1c-0.3-0.3-0.6-0.4-0.9-0.4
						s-0.7,0.1-1,0.4c-0.3,0.3-0.4,0.6-0.4,1v4.1h-1.9v-9.6h1.9v3c0.3-0.3,0.6-0.4,0.9-0.6c0.3-0.1,0.7-0.2,1.1-0.2
						C176.5,53.1,177.1,53.4,177.6,53.9z"/>
				</g>
			</g>
		</g>
		<g>
			<path class="st0" d="M179.2,52.7c-0.1,0-0.3,0-0.3-0.1c-0.1-0.1-0.2-0.1-0.3-0.2c-0.1-0.1-0.1-0.2-0.2-0.3s-0.1-0.3-0.1-0.4
				s0-0.3,0.1-0.4c0.1-0.1,0.1-0.2,0.2-0.3c0.1-0.1,0.2-0.1,0.3-0.2c0.1-0.1,0.3-0.1,0.3-0.1c0.1,0,0.3,0,0.3,0.1
				c0.1,0.1,0.2,0.1,0.3,0.2c0.1,0.1,0.1,0.2,0.2,0.3c0.1,0.1,0.1,0.3,0.1,0.4s0,0.3-0.1,0.4c-0.1,0.1-0.1,0.2-0.2,0.3
				c-0.1,0.1-0.2,0.1-0.3,0.2C179.4,52.6,179.3,52.7,179.2,52.7z M179.2,52.5c0.1,0,0.2,0,0.3-0.1s0.1-0.1,0.3-0.1
				c0.1-0.1,0.1-0.1,0.1-0.2c0-0.1,0.1-0.2,0.1-0.3v-0.1c0-0.1,0-0.2-0.1-0.3c0-0.1-0.1-0.1-0.1-0.2c-0.1-0.1-0.1-0.1-0.3-0.1
				c-0.1-0.1-0.2-0.1-0.3-0.1s-0.2,0-0.3,0.1s-0.1,0.1-0.3,0.1c-0.1,0.1-0.1,0.1-0.1,0.2c0,0.1-0.1,0.2-0.1,0.3v0.1
				c0,0.1,0,0.2,0.1,0.3c0,0.1,0.1,0.1,0.1,0.2c0.1,0.1,0.1,0.1,0.3,0.1S179.1,52.5,179.2,52.5z M179.1,52.2h-0.2v-0.9h0.4
				c0.1,0,0.1,0,0.2,0.1c0.1,0.1,0.1,0.1,0.1,0.2c0,0.1,0,0.1-0.1,0.2c-0.1,0.1-0.1,0.1-0.1,0.1l0.3,0.4h-0.2l-0.2-0.4h-0.1
				L179.1,52.2L179.1,52.2z M179.2,51.7c0.1,0,0.1-0.1,0.1-0.1v-0.1c0-0.1,0-0.1-0.1-0.1H179v0.3C179.1,51.7,179.2,51.7,179.2,51.7z
				"/>
		</g>
	</g>
</g>
</svg>
